<?xml version="1.0" encoding="UTF-8"?><svg id="Layer_2" xmlns="http://www.w3.org/2000/svg" viewBox="0 0 217.74 126.27"><defs><style>.cls-1{fill:#edede1;}.cls-2{fill:#dbdacd;}</style></defs><g id="Layer_1-2"><polygon class="cls-1" points=".48 71.98 0 13.61 7.88 3.65 15.19 3.65 21.16 13.61 21.16 43.51 34.45 43.51 34.45 23.58 47.74 23.58 47.74 36.2 69.66 36.2 69.66 60.78 74.97 60.78 74.97 14.28 107.52 25.57 107.52 49.48 124.79 49.48 124.79 37.53 130.77 32.21 147.38 32.21 152.69 36.2 152.69 51.48 170.63 51.48 175.28 58.78 175.28 68.75 183.25 68.75 183.25 57.46 213.14 57.46 217.12 64.1 217.74 100.66 1.04 111.56 .48 71.98"/><path class="cls-2" d="M173.07,106.81s.55-9.11.83-11.59c.28-2.48,0-16.01-.28-17.66-.28-1.66-1.66-18.49-1.38-20.7s-1.1-26.77-1.1-26.77l-3.31,5.52-2.76,7.73-4.42,8.28,4.42-16.84-11.59,11.04,5.8-8.83-15.73,10.76,13.52-12.14-14.9,4.42,19.32-12.14-18.49,3.59,1.66-3.31s15.18-2.48,14.08-2.21-14.9-1.93-14.9-1.93l1.66-2.21,18.77,2.21-13.8-6.07,14.63,3.04-12.14-6.07s9.38,1.66,8.56,1.1c-.83-.55-5.8-7.18-5.8-7.18l9.66,5.48-3.59-11s8.56,11,7.45,11-1.93-11.27-2.76-13.2,3.59,3.31,3.59,3.31c0,0,.55,6.07.83,8.28.28,2.21,4.14-9.11,5.8-10.76s7.45-1.93,7.45-1.93c0,0-3.31,2.76-4.42,3.86s-5.8,11.87-5.8,11.87c0,0,11.32-10.21,13.52-10.21s-1.93,3.31-1.93,3.31l-6.07,6.35s13.25-6.07,16.28-4.97l-8.56,4.1-5.79,4.74s5.28-1.71,9.43-1.86c1.38-.05,2.64.07,3.54.48,3.59,1.66,5.8,3.31,5.8,3.31l-7.45-.83-7.45.55-6.35,1.94s12.98-.11,15.73,1.09,4.69,7.18,4.97,8-8-4.97-8-4.97c0,0-2.76-1.83-5.25-1.83s-10.49.73-10.49.73c0,0,10.21,6.07,11.59,7.45s3.59,3.04,4.14,5.24c.55,2.21-.28,5.24-.28,5.24l-3.04-5.52-1.38,3.04-1.66-6.35-1.93,1.1-1.38-4.14-.83,4.69-3.59-5.58-1.38,4.48-2.48-6.9.83,11.32.28,15.18.55,10.49s1.66,16.01,1.93,16.84-.83,26.5-.83,26.5l-3.31-1.93Z"/><path class="cls-2" d="M26.2,115.6v-1.55l-.36-3.69s1.19-3.8,1.31-4.28,1.31-3.6,1.31-3.6c0,0,4.63.68,5.59,0s9.75-6.27,9.75-6.27c0,0,6.06-1.55,9.04-1.78,2.97-.24,10.94-.71,12.72-.36,1.78.36,8.2,1.32,8.2,1.32,0,0,13.67,5.7,14.15,5.93s3.8,2.73,3.8,2.73c0,0,5.35,1.31,7.01,1.9s7.37,4.16,7.97,4.76,1.43,2.38,1.43,3.33-.71,3.33-.71,3.33l.24,1.9s-5.47,2.38-6.54,2.38-7.01.24-7.01.24l-.83-4.04-1.07.36s.24,2.62.24,3.45-1.55,3.45-2.62,3.8-3.33,1.31-5.47.48c-2.14-.83-3.21-.83-3.92-2.5-.71-1.66-.95-3.8-.95-3.8l-.95.12.18,2.3-33.47-2.3-.55-2.65c-.01-.07-.1-.08-.13-.01l-.51.13s0,3.95-.59,4.55-.97,1.54-2.45,1.66-4.09-.35-4.92-1.31-1.55-4.28-1.55-4.28l-1.07-.24h0l-2.38-.12-4.87-1.9Z"/></g></svg>