<svg width="32" height="32" viewBox="0 0 32 32" fill="none" xmlns="http://www.w3.org/2000/svg">
<path fill-rule="evenodd" clip-rule="evenodd" d="M22.9785 13.9654C22.8858 13.6091 22.5217 13.3955 22.1654 13.4882C19.7241 14.124 17.8549 14.4171 16.0026 14.4097C14.1482 14.4022 12.2765 14.0936 9.82714 13.4864C9.46981 13.3978 9.10827 13.6156 9.01967 13.973C8.93107 14.3304 9.14894 14.6919 9.50634 14.7805C10.9473 15.1377 12.2179 15.4004 13.4212 15.5603L14 15.6373V19.2916L13.3385 24.584C13.2938 24.9414 13.5412 25.2698 13.8972 25.3254C14.2531 25.3809 14.5889 25.1436 14.6553 24.7895L15.6553 19.4562C15.6627 19.4162 15.6665 19.376 15.6667 19.336H17C17.0001 19.376 17.0039 19.4162 17.0114 19.4562L18.0114 24.7895C18.0778 25.1436 18.4135 25.3809 18.7695 25.3254C19.1255 25.2698 19.3729 24.9414 19.3282 24.584L18.6667 19.292V15.5717L19.2291 15.4827C20.2417 15.3224 21.3132 15.088 22.5014 14.7786C22.8577 14.6858 23.0713 14.3218 22.9785 13.9654ZM21.8294 12.198C22.8983 11.9196 23.9905 12.5605 24.2689 13.6294C24.5472 14.6984 23.9063 15.7906 22.8374 16.0689C21.8321 16.3306 20.8963 16.5432 20 16.7044V19.209L20.6512 24.4186C20.7853 25.491 20.043 26.476 18.9751 26.6427C17.9073 26.8094 16.9001 26.0976 16.7009 25.0352L16.3333 23.0748L15.9657 25.0352C15.7665 26.0976 14.7594 26.8094 13.6915 26.6427C12.6237 26.476 11.8814 25.491 12.0155 24.4186L12.6667 19.2086V16.7984C11.5736 16.6284 10.4321 16.3837 9.18547 16.0746C8.11341 15.8089 7.45974 14.7243 7.72547 13.6522C7.99127 12.58 9.07587 11.9264 10.148 12.1922C12.5493 12.7875 14.3048 13.0696 16.0079 13.0764C17.705 13.0832 19.4526 12.8168 21.8294 12.198Z" fill="#383633"/>
<path fill-rule="evenodd" clip-rule="evenodd" d="M16 6.66671C14.8954 6.66671 14 7.56211 14 8.66671C14 9.77131 14.8954 10.6667 16 10.6667C17.1046 10.6667 18 9.77131 18 8.66671C18 7.56211 17.1046 6.66671 16 6.66671ZM12.6666 8.66671C12.6666 6.82577 14.159 5.33337 16 5.33337C17.841 5.33337 19.3333 6.82577 19.3333 8.66671C19.3333 10.5076 17.841 12 16 12C14.159 12 12.6666 10.5076 12.6666 8.66671Z" fill="#383633"/>
</svg>
