<svg width="19" height="19" viewBox="0 0 19 19" fill="none" xmlns="http://www.w3.org/2000/svg">
<path d="M11.6667 18.3333H10V16.6667H11.6667V18.3333ZM15 16.6667H13.3333V18.3333H15V16.6667ZM11.6667 13.3333H10V15H11.6667V13.3333ZM5 16.6667H3.33333V18.3333H5V16.6667ZM5 13.3333H3.33333V15H5V13.3333ZM15 13.3333H13.3333V15H15V13.3333ZM11.6667 10H10V11.6667H11.6667V10ZM15 10H13.3333V11.6667H15V10ZM16.6667 6.66667C17.1087 6.66667 17.5326 6.84226 17.8452 7.15482C18.1577 7.46738 18.3333 7.89131 18.3333 8.33333V18.3333H16.6667V8.33333H8.33333V18.3333H6.66667V11.6667H1.66667V18.3333H0V11.6667C0 11.2246 0.175595 10.8007 0.488155 10.4882C0.800716 10.1756 1.22464 10 1.66667 10H6.66667V8.33333C6.66667 7.89131 6.84226 7.46738 7.15482 7.15482C7.46738 6.84226 7.89131 6.66667 8.33333 6.66667V5C8.33333 4.55797 8.50893 4.13405 8.82149 3.82149C9.13405 3.50893 9.55797 3.33333 10 3.33333H11.6667V0H13.3333V3.33333H15C15.442 3.33333 15.866 3.50893 16.1785 3.82149C16.4911 4.13405 16.6667 4.55797 16.6667 5V6.66667ZM15 6.66667V5H10V6.66667H15Z" fill="#666666"/>
</svg>
