<svg width="17" height="13" viewBox="0 0 17 13" fill="none" xmlns="http://www.w3.org/2000/svg">
<path d="M11.0833 7.41667L8.08333 4.41667C8 4.33333 7.94111 4.24306 7.90667 4.14583C7.87167 4.04861 7.85417 3.94444 7.85417 3.83333C7.85417 3.72222 7.87167 3.61806 7.90667 3.52083C7.94111 3.42361 8 3.33333 8.08333 3.25L11.0833 0.25C11.25 0.0833331 11.4444 0 11.6667 0C11.8889 0 12.0833 0.0833331 12.25 0.25C12.4167 0.416666 12.5 0.614444 12.5 0.843333C12.5 1.07278 12.4167 1.27083 12.25 1.4375L10.6875 3H15.8333C16.0694 3 16.2672 3.07972 16.4267 3.23917C16.5867 3.39917 16.6667 3.59722 16.6667 3.83333C16.6667 4.06944 16.5867 4.26722 16.4267 4.42667C16.2672 4.58667 16.0694 4.66667 15.8333 4.66667H10.6875L12.25 6.22917C12.4167 6.39583 12.5 6.59028 12.5 6.8125C12.5 7.03472 12.4167 7.22917 12.25 7.39583C12.0833 7.5625 11.8925 7.65278 11.6775 7.66667C11.4619 7.68056 11.2639 7.59722 11.0833 7.41667ZM4.41667 12.3958C4.58333 12.5625 4.77778 12.6492 5 12.6558C5.22222 12.6631 5.41667 12.5833 5.58333 12.4167L8.58333 9.41667C8.66667 9.33333 8.72583 9.24306 8.76083 9.14583C8.79528 9.04861 8.8125 8.94444 8.8125 8.83333C8.8125 8.72222 8.79528 8.61806 8.76083 8.52083C8.72583 8.42361 8.66667 8.33333 8.58333 8.25L5.58333 5.25C5.41667 5.08333 5.22222 5 5 5C4.77778 5 4.58333 5.08333 4.41667 5.25C4.25 5.41667 4.16667 5.61444 4.16667 5.84333C4.16667 6.07278 4.25 6.27083 4.41667 6.4375L5.97917 8H0.833333C0.597222 8 0.399445 8.07972 0.24 8.23917C0.0800001 8.39917 0 8.59722 0 8.83333C0 9.06944 0.0800001 9.26722 0.24 9.42667C0.399445 9.58667 0.597222 9.66667 0.833333 9.66667H5.97917L4.41667 11.2292C4.25 11.3958 4.16667 11.5903 4.16667 11.8125C4.16667 12.0347 4.25 12.2292 4.41667 12.3958Z" fill="#666666"/>
</svg>
