<svg width="32" height="32" viewBox="0 0 32 32" fill="none" xmlns="http://www.w3.org/2000/svg">
<path d="M10 7.99996C10.3682 7.99996 10.6667 7.70149 10.6667 7.33329C10.6667 6.96509 10.3682 6.66663 10 6.66663C9.63181 6.66663 9.33334 6.96509 9.33334 7.33329C9.33334 7.70149 9.63181 7.99996 10 7.99996Z" fill="#383633"/>
<path d="M7.99999 7.33329C7.99999 7.70149 7.70152 7.99996 7.33332 7.99996C6.96512 7.99996 6.66666 7.70149 6.66666 7.33329C6.66666 6.96509 6.96512 6.66663 7.33332 6.66663C7.70152 6.66663 7.99999 6.96509 7.99999 7.33329Z" fill="#383633"/>
<path d="M10 10.6667C10.3682 10.6667 10.6667 10.3682 10.6667 10C10.6667 9.63184 10.3682 9.33337 10 9.33337C9.63181 9.33337 9.33334 9.63184 9.33334 10C9.33334 10.3682 9.63181 10.6667 10 10.6667Z" fill="#383633"/>
<path d="M7.99999 10C7.99999 10.3682 7.70152 10.6667 7.33332 10.6667C6.96512 10.6667 6.66666 10.3682 6.66666 10C6.66666 9.63184 6.96512 9.33337 7.33332 9.33337C7.70152 9.33337 7.99999 9.63184 7.99999 10Z" fill="#383633"/>
<path d="M12.6667 7.99996C13.0349 7.99996 13.3333 7.70149 13.3333 7.33329C13.3333 6.96509 13.0349 6.66663 12.6667 6.66663C12.2985 6.66663 12 6.96509 12 7.33329C12 7.70149 12.2985 7.99996 12.6667 7.99996Z" fill="#383633"/>
<path d="M13.3333 10C13.3333 10.3682 13.0349 10.6667 12.6667 10.6667C12.2985 10.6667 12 10.3682 12 10C12 9.63184 12.2985 9.33337 12.6667 9.33337C13.0349 9.33337 13.3333 9.63184 13.3333 10Z" fill="#383633"/>
<path d="M15.3333 7.99996C15.7015 7.99996 16 7.70149 16 7.33329C16 6.96509 15.7015 6.66663 15.3333 6.66663C14.9651 6.66663 14.6667 6.96509 14.6667 7.33329C14.6667 7.70149 14.9651 7.99996 15.3333 7.99996Z" fill="#383633"/>
<path d="M16 10C16 10.3682 15.7015 10.6667 15.3333 10.6667C14.9651 10.6667 14.6667 10.3682 14.6667 10C14.6667 9.63184 14.9651 9.33337 15.3333 9.33337C15.7015 9.33337 16 9.63184 16 10Z" fill="#383633"/>
<path fill-rule="evenodd" clip-rule="evenodd" d="M4 5.33333C4 4.59695 4.59695 4 5.33333 4H17.3333C18.0697 4 18.6667 4.59695 18.6667 5.33333V12C18.6667 12.7364 18.0697 13.3333 17.3333 13.3333H5.33333C4.59695 13.3333 4 12.7364 4 12V5.33333ZM5.33333 5.33333H17.3333V12H5.33333V5.33333Z" fill="#383633"/>
<path fill-rule="evenodd" clip-rule="evenodd" d="M18.6667 14.6666V26.6666H18C17.6318 26.6666 17.3333 26.9651 17.3333 27.3333C17.3333 27.7015 17.6318 28 18 28H27.3333C27.7015 28 28 27.7015 28 27.3333C28 26.9651 27.7015 26.6666 27.3333 26.6666H26.6667V14.6666C26.6667 13.1861 25.8623 11.8934 24.6667 11.2018V10.6666C24.6667 9.56203 23.7713 8.66663 22.6667 8.66663C21.5621 8.66663 20.6667 9.56203 20.6667 10.6666V11.2018C19.4711 11.8934 18.6667 13.1861 18.6667 14.6666ZM22 11.9708L21.3343 12.3559C20.5337 12.819 20 13.6813 20 14.6666V26.6666H25.3333V14.6666C25.3333 13.6813 24.7996 12.819 23.999 12.3559L23.3333 11.9708V10.6666C23.3333 10.2984 23.0349 9.99996 22.6667 9.99996C22.2985 9.99996 22 10.2984 22 10.6666V11.9708Z" fill="#383633"/>
<path fill-rule="evenodd" clip-rule="evenodd" d="M8.66667 18.5185C8.66667 17.9575 9.10527 17.4874 9.6944 17.3646L9.07473 16.1099L4.31941 17.3135L4 16.0199L8.75533 14.8163C9.35413 14.6647 9.9766 14.9546 10.2526 15.5135L10.6667 16.352L11.0807 15.5135C11.3567 14.9546 11.9792 14.6647 12.578 14.8163L17.3333 16.0199L17.0139 17.3135L12.2586 16.1099L11.6389 17.3646C12.2281 17.4874 12.6667 17.9575 12.6667 18.5185V25.4815C12.6667 26.1361 12.0697 26.6667 11.3333 26.6667V28H10V26.6667C9.2636 26.6667 8.66667 26.1361 8.66667 25.4815V18.5185ZM10 25.4815V18.5185H11.3333V25.4815H10Z" fill="#383633"/>
</svg>
