<svg width="17" height="14" viewBox="0 0 17 14" fill="none" xmlns="http://www.w3.org/2000/svg">
<path d="M15 1.66667H8.33333L7.15833 0.491667C6.84167 0.175 6.41667 0 5.975 0H1.66667C0.75 0 0.00833333 0.75 0.00833333 1.66667L0 11.6667C0 12.5833 0.75 13.3333 1.66667 13.3333H15C15.9167 13.3333 16.6667 12.5833 16.6667 11.6667V3.33333C16.6667 2.41667 15.9167 1.66667 15 1.66667ZM14.1667 11.6667H2.5C2.04167 11.6667 1.66667 11.2917 1.66667 10.8333V4.16667C1.66667 3.70833 2.04167 3.33333 2.5 3.33333H14.1667C14.625 3.33333 15 3.70833 15 4.16667V10.8333C15 11.2917 14.625 11.6667 14.1667 11.6667Z" fill="#666666"/>
</svg>
