<svg width="32" height="32" viewBox="0 0 32 32" fill="none" xmlns="http://www.w3.org/2000/svg">
<path fill-rule="evenodd" clip-rule="evenodd" d="M4.54545 8.90938C4.24421 9.21064 4.24421 9.69904 4.54545 10.0003C4.8467 10.3016 5.33511 10.3016 5.63636 10.0003L6.18216 9.45451L8.90909 12.1814L6.72729 14.3633C6.42601 14.6646 6.42601 15.153 6.72729 15.4542C7.02849 15.7555 7.51689 15.7555 7.81815 15.4542L8.90882 14.3635L18.1818 23.6367C19.3001 24.755 20.9344 25.0431 22.3184 24.5008L23.0908 25.2732C23.4947 25.6771 24.0668 25.8102 24.5816 25.6726L26.3637 27.4547C26.6649 27.756 27.1533 27.756 27.4546 27.4547C27.7558 27.1534 27.7558 26.665 27.4546 26.3638L25.6722 24.5814C25.8095 24.0668 25.6763 23.495 25.2726 23.0913L24.5003 22.319C25.0427 20.9348 24.7547 19.3004 23.6364 18.182L14.3634 8.90884L15.4545 7.81771C15.7558 7.51644 15.7558 7.02804 15.4545 6.72678C15.1533 6.42554 14.6648 6.42554 14.3636 6.72678L12.1818 8.90864L9.45489 6.1817L9.99995 5.63658C10.3012 5.33532 10.3012 4.8469 9.99995 4.54564C9.69875 4.24439 9.21035 4.24439 8.90909 4.54564L4.54545 8.90938ZM11.239 9.85151L8.51209 7.12451L7.12495 8.51164L9.85189 11.2386L11.239 9.85151ZM13.4206 9.85171L9.85162 13.4207L12.789 16.3581L16.3579 12.789L13.4206 9.85171ZM13.8798 17.449L15.5162 19.0854L16.7554 17.8463C17.0566 17.545 17.545 17.545 17.8463 17.8463C18.1476 18.1476 18.1476 18.636 17.8463 18.9372L16.6072 20.1764L17.6978 21.267L18.937 20.0278C19.2383 19.7265 19.7267 19.7265 20.028 20.0278C20.3292 20.329 20.3292 20.8174 20.028 21.1187L18.7887 22.358L19.1246 22.6939C19.8567 23.426 20.9266 23.6142 21.8325 23.2587L23.2584 21.8328C23.6139 20.9269 23.4256 19.857 22.6936 19.1249L17.4488 13.88L13.8798 17.449ZM24.3483 24.0553C24.3427 24.0479 24.3365 24.0408 24.3298 24.0342L23.7804 23.4847C23.734 23.5364 23.686 23.587 23.6364 23.6367C23.5866 23.6864 23.5359 23.7345 23.4842 23.781L24.0336 24.3304C24.0404 24.3371 24.0475 24.3433 24.0549 24.349C24.0886 24.2892 24.1309 24.2328 24.1818 24.1819C24.2326 24.1312 24.2887 24.0889 24.3483 24.0553Z" fill="#383633"/>
</svg>
