<svg width="14" height="14" viewBox="0 0 14 14" fill="none" xmlns="http://www.w3.org/2000/svg">
<path d="M6.66667 13.3333C5.88889 13.3333 5.15639 13.2117 4.46917 12.9683C3.78139 12.7256 3.15278 12.3819 2.58333 11.9375L1.41667 13.0833C1.26389 13.2361 1.06944 13.3125 0.833333 13.3125C0.597222 13.3125 0.402778 13.2361 0.25 13.0833C0.0972224 12.9306 0.0208334 12.7361 0.0208334 12.5C0.0208334 12.2639 0.0972224 12.0694 0.25 11.9167L1.39583 10.7708C0.951389 10.2014 0.607778 9.56944 0.365 8.875C0.121667 8.18056 0 7.44444 0 6.66667C0 4.80555 0.645833 3.22917 1.9375 1.9375C3.22917 0.645833 4.80556 0 6.66667 0H13.3333V6.66667C13.3333 8.52778 12.6875 10.1042 11.3958 11.3958C10.1042 12.6875 8.52778 13.3333 6.66667 13.3333ZM6.66667 11.6667C8.05556 11.6667 9.23611 11.1806 10.2083 10.2083C11.1806 9.23611 11.6667 8.05556 11.6667 6.66667V1.66667H6.66667C5.27778 1.66667 4.09722 2.15278 3.125 3.125C2.15278 4.09722 1.66667 5.27778 1.66667 6.66667C1.66667 7.20833 1.75 7.72555 1.91667 8.21833C2.08333 8.71167 2.3125 9.15972 2.60417 9.5625L6.91667 5.25C7.06944 5.09722 7.26389 5.02083 7.5 5.02083C7.73611 5.02083 7.93056 5.09722 8.08333 5.25C8.25 5.41667 8.33333 5.61444 8.33333 5.84333C8.33333 6.07278 8.25 6.27083 8.08333 6.4375L3.77083 10.75C4.17361 11.0417 4.62139 11.2672 5.11417 11.4267C5.6075 11.5867 6.125 11.6667 6.66667 11.6667Z" fill="#666666"/>
</svg>
