<svg width="12" height="17" viewBox="0 0 12 17" fill="none" xmlns="http://www.w3.org/2000/svg">
<path d="M5.83333 12.0625C7.20833 10.9514 8.24667 9.88194 8.94833 8.85417C9.64944 7.82639 10 6.86111 10 5.95833C10 5.18056 9.85778 4.51722 9.57333 3.96833C9.28833 3.42 8.9375 2.97556 8.52083 2.635C8.10417 2.295 7.65278 2.04861 7.16667 1.89583C6.68056 1.74306 6.23611 1.66667 5.83333 1.66667C5.43056 1.66667 4.98611 1.74306 4.5 1.89583C4.01389 2.04861 3.5625 2.295 3.14583 2.635C2.72917 2.97556 2.37861 3.42 2.09417 3.96833C1.80917 4.51722 1.66667 5.18056 1.66667 5.95833C1.66667 6.86111 2.01722 7.82639 2.71833 8.85417C3.42 9.88194 4.45833 10.9514 5.83333 12.0625ZM5.83333 13.875C5.70833 13.875 5.59028 13.8575 5.47917 13.8225C5.36806 13.7881 5.26389 13.7361 5.16667 13.6667C3.43056 12.3194 2.13556 11.0069 1.28167 9.72917C0.427222 8.45139 0 7.19444 0 5.95833C0 4.97222 0.177222 4.1075 0.531667 3.36417C0.885556 2.62139 1.34028 2 1.89583 1.5C2.45139 1 3.07639 0.625 3.77083 0.375C4.46528 0.125 5.15278 0 5.83333 0C6.51389 0 7.20139 0.125 7.89583 0.375C8.59028 0.625 9.21528 1 9.77083 1.5C10.3264 2 10.7814 2.62139 11.1358 3.36417C11.4897 4.1075 11.6667 4.97222 11.6667 5.95833C11.6667 7.19444 11.2394 8.45139 10.385 9.72917C9.53111 11.0069 8.23611 12.3194 6.5 13.6667C6.41667 13.7361 6.31611 13.7881 6.19833 13.8225C6.08 13.8575 5.95833 13.875 5.83333 13.875ZM5.83333 7.5C6.29167 7.5 6.68417 7.33667 7.01083 7.01C7.33694 6.68389 7.5 6.29167 7.5 5.83333C7.5 5.375 7.33694 4.9825 7.01083 4.65583C6.68417 4.32972 6.29167 4.16667 5.83333 4.16667C5.375 4.16667 4.98278 4.32972 4.65667 4.65583C4.33 4.9825 4.16667 5.375 4.16667 5.83333C4.16667 6.29167 4.33 6.68389 4.65667 7.01C4.98278 7.33667 5.375 7.5 5.83333 7.5ZM0.833333 16.6667C0.597222 16.6667 0.399167 16.5867 0.239167 16.4267C0.0797224 16.2672 0 16.0694 0 15.8333C0 15.5972 0.0797224 15.3994 0.239167 15.24C0.399167 15.08 0.597222 15 0.833333 15H10.8333C11.0694 15 11.2672 15.08 11.4267 15.24C11.5867 15.3994 11.6667 15.5972 11.6667 15.8333C11.6667 16.0694 11.5867 16.2672 11.4267 16.4267C11.2672 16.5867 11.0694 16.6667 10.8333 16.6667H0.833333Z" fill="#666666"/>
</svg>
