<svg width="32" height="32" viewBox="0 0 32 32" fill="none" xmlns="http://www.w3.org/2000/svg">
<path fill-rule="evenodd" clip-rule="evenodd" d="M18.3334 7C18.3334 5.34315 19.6766 4 21.3334 4C22.9902 4 24.3334 5.34315 24.3334 7C24.3334 8.05373 23.7902 8.98053 22.9684 9.51567L23.9262 9.35607C24.6097 9.24213 25.2924 9.563 25.6408 10.1619L27.774 13.8286C28.1206 14.4245 28.0647 15.1722 27.6332 15.7099L25.9675 17.7856L25.9816 17.8445C26.201 18.7593 26.3962 19.7178 26.5696 20.5691C26.573 20.5853 26.5762 20.6015 26.5796 20.6177C26.6026 20.7307 26.6252 20.8417 26.6474 20.9503C26.8451 21.9163 27.0044 22.6544 27.1369 23.0301C27.4058 23.7926 26.9612 24.7353 26.0572 24.8479C23.4039 25.1783 20.3384 25.1863 17.6872 24.8415C16.8316 24.7302 16.3762 23.8589 16.6139 23.1061C16.6718 22.9226 16.745 22.6941 16.8279 22.4351C17.1161 21.5351 17.5226 20.2655 17.8218 19.2232L17.2028 18.4411C17.0042 18.9115 16.5929 19.2847 16.0586 19.414C15.1903 19.624 14.3879 19.7908 13.6204 19.9123V22.1731C13.6239 22.1941 13.627 22.2152 13.6296 22.2365L14.1186 26.1255C14.2309 27.019 13.613 27.8401 12.7234 27.9798C11.8337 28.1195 10.994 27.5271 10.8271 26.6421L10.7538 26.2534L10.6805 26.6421C10.5136 27.5271 9.67389 28.1195 8.78416 27.9798C7.89449 27.8401 7.27669 27.019 7.38902 26.1255L7.87789 22.2365C7.88056 22.2152 7.88362 22.1941 7.88709 22.1731V19.9261C7.07136 19.8029 6.21901 19.6315 5.29272 19.4182C4.39572 19.2117 3.83602 18.317 4.04257 17.42C4.24913 16.523 5.14374 15.9633 6.04074 16.1699C7.15402 16.4263 8.09216 16.6036 8.94996 16.7073C8.36909 16.2181 8.00002 15.4855 8.00002 14.6667C8.00002 13.1939 9.19396 12 10.6667 12C12.1395 12 13.3334 13.1939 13.3334 14.6667C13.3334 15.4931 12.9575 16.2317 12.3673 16.7208C13.2262 16.6211 14.1639 16.4428 15.2749 16.1741C15.3371 16.1591 15.3993 16.1477 15.4613 16.1399C15.2784 15.6998 15.2899 15.1941 15.5096 14.7547L17.1578 11.4583C17.4916 10.7906 18.1248 10.323 18.8612 10.2003L20.6017 9.91013C19.2985 9.58353 18.3334 8.40447 18.3334 7ZM21.3334 5.33333C20.4129 5.33333 19.6667 6.07953 19.6667 7C19.6667 7.92047 20.4129 8.66667 21.3334 8.66667C22.2538 8.66667 23 7.92047 23 7C23 6.07953 22.2538 5.33333 21.3334 5.33333ZM21.1051 18.207C21.0472 18.0007 20.9483 17.8023 20.807 17.6239L20.0144 16.6224L22.0006 15.6293L20.0616 14.9829C19.9256 14.9375 19.8338 14.8102 19.8337 14.6667L19.8336 13.3334C19.8335 13.1493 19.9828 13 20.1668 13C20.351 13 20.5002 13.1492 20.5002 13.3333L20.5004 14.4264L22.9116 15.2302L23.1589 15.3589C23.2696 15.4165 23.3647 15.5051 23.4304 15.6214L22.9004 16.2818C22.703 16.5277 22.5868 16.8123 22.5481 17.1036L22.4599 17.2092C22.133 17.6009 21.9049 17.8623 21.7037 18.0313C21.5157 18.1893 21.4198 18.207 21.3605 18.207H21.1051ZM18.9257 20.223L18.9025 20.2735C18.6308 21.1774 18.3208 22.1452 18.0924 22.8587C18.0114 23.1115 17.9405 23.3329 17.8854 23.5075L17.8846 23.5101C17.8842 23.5118 17.8838 23.5135 17.8836 23.5149L17.8834 23.5171C17.8833 23.5191 17.8833 23.5209 17.8835 23.5225C20.4069 23.8482 23.3413 23.8409 25.876 23.5268C25.8838 23.512 25.886 23.4919 25.8795 23.4735C25.709 22.9902 25.5304 22.1427 25.3412 21.2176C25.3157 21.0934 25.29 20.9669 25.2638 20.8386L25.2624 20.8319C25.1425 20.2432 25.0148 19.616 24.8769 18.9911C24.6936 19.0411 24.5009 19.0679 24.3019 19.0679C23.8094 19.0679 23.3578 18.9049 22.9919 18.6328C22.8484 18.7886 22.7054 18.9313 22.5613 19.0523C22.2404 19.3218 21.8499 19.5403 21.3605 19.5403H21.2783L20.9193 19.5331C20.8201 19.6941 20.6915 19.8409 20.5346 19.9651C20.063 20.3384 19.452 20.4157 18.9257 20.223ZM18.8944 15.7429C18.6459 15.4489 18.5004 15.0707 18.5004 14.6669L18.5002 13.3335C18.5001 12.4131 19.2462 11.6668 20.1667 11.6667C21.0872 11.6665 21.8334 12.4127 21.8336 13.3331V13.4654L22.0094 13.524C22.0034 13.4612 22.0004 13.3977 22.0004 13.3333C22.0004 12.2288 22.8958 11.3333 24.0004 11.3333C24.3261 11.3333 24.6337 11.4112 24.9054 11.5493L24.4884 10.8324C24.4187 10.7127 24.2822 10.6485 24.1454 10.6713L19.0804 11.5154C18.7648 11.568 18.4934 11.7685 18.3503 12.0546L16.7022 15.3509C16.6443 15.4667 16.6586 15.6054 16.739 15.7069L19.2388 18.8651C19.3531 19.0095 19.5628 19.0339 19.7071 18.9196C19.8514 18.8053 19.8758 18.5957 19.7616 18.4514L18.2374 16.5258L18.5378 16.1161C18.6388 15.9784 18.7582 15.8526 18.8944 15.7429ZM25.9982 13.4277C25.9604 14.2427 25.4346 14.9303 24.7064 15.2051C24.7675 15.3571 24.8088 15.5133 24.831 15.6707L24.8712 15.9562L23.9402 17.1163C23.825 17.2599 23.848 17.4697 23.9916 17.5849C24.1352 17.7001 24.345 17.6771 24.4602 17.5335L26.5934 14.8753C26.6796 14.7678 26.6908 14.6183 26.6215 14.4991L25.9982 13.4277ZM24.0004 12.6667C23.6322 12.6667 23.3337 12.9651 23.3337 13.3333C23.3337 13.7015 23.6322 14 24.0004 14C24.3686 14 24.667 13.7015 24.667 13.3333C24.667 12.9651 24.3686 12.6667 24.0004 12.6667ZM15.9908 17.7157C15.9474 17.5367 15.7673 17.4268 15.5884 17.4701C13.6508 17.9387 12.1555 18.1577 10.6679 18.1522C9.17936 18.1467 7.68282 17.9163 5.74154 17.4692C5.56214 17.4279 5.38321 17.5399 5.3419 17.7193C5.30059 17.8987 5.41253 18.0775 5.59193 18.1189C6.71596 18.3777 7.70382 18.5675 8.63622 18.6838L9.22042 18.7566V22.305L9.20569 22.3739C9.20369 22.3833 9.20209 22.3929 9.20082 22.4027L8.71196 26.2917C8.68949 26.4705 8.81302 26.6347 8.99096 26.6626C9.16889 26.6905 9.33682 26.5721 9.37022 26.3951L10.0986 22.5321H11.4089L12.1374 26.3951C12.1707 26.5721 12.3386 26.6905 12.5166 26.6626C12.6945 26.6347 12.8181 26.4705 12.7956 26.2917L12.3068 22.4027C12.3055 22.3929 12.3038 22.3833 12.3018 22.3739L12.2871 22.305V18.7501L12.8674 18.6742C13.7499 18.5588 14.6868 18.374 15.7451 18.118C15.924 18.0747 16.034 17.8946 15.9908 17.7157ZM9.33336 14.6667C9.33336 13.9303 9.93036 13.3333 10.6667 13.3333C11.4031 13.3333 12 13.9303 12 14.6667C12 15.4031 11.4031 16 10.6667 16C9.93036 16 9.33336 15.4031 9.33336 14.6667Z" fill="#383633"/>
<path d="M21.2291 26.2842C20.5076 26.2598 19.775 26.199 19 26.101V26.9999C19 27.5014 19.3715 27.9252 19.8685 27.9912C20.3657 28.0571 20.8347 27.7446 20.9655 27.2605L21.2291 26.2842Z" fill="#1F1E1C"/>
<path d="M23.4275 26.2463L23.7013 27.2605C23.832 27.7447 24.301 28.0571 24.7982 27.9912C25.2953 27.9253 25.6667 27.5014 25.6667 26.9999V26C24.881 26.1159 24.1444 26.1983 23.4275 26.2463Z" fill="#1F1E1C"/>
</svg>
