<svg width="32" height="32" viewBox="0 0 32 32" fill="none" xmlns="http://www.w3.org/2000/svg">
<path fill-rule="evenodd" clip-rule="evenodd" d="M3.35126 8.00262C3.45134 9.79669 3.96196 10.9072 4.70977 11.5916C4.34464 11.8636 4.13296 12.32 4.21068 12.8136C4.59226 15.2366 5.54623 20.362 7.50182 26.1393C7.89049 27.2876 9.44275 27.2876 9.83142 26.1393C11.787 20.362 12.741 15.2366 13.1226 12.8136C13.2003 12.32 12.9886 11.8636 12.6235 11.5916C13.3712 10.9072 13.8819 9.79669 13.982 8.00262C14.0024 7.63502 13.7005 7.33216 13.3324 7.33742C12.2469 7.35302 11.3848 7.41896 10.7124 7.64502C10.4348 6.91276 9.87422 6.22142 9.03075 5.59029C8.81529 5.42905 8.51789 5.42905 8.30235 5.59029C7.46582 6.2163 6.90755 6.90156 6.62766 7.62722C5.97457 7.43462 5.11935 7.35822 4.0026 7.33869C3.63447 7.33222 3.33076 7.63502 3.35126 8.00262ZM9.92055 9.31782L9.46555 8.11769C9.33962 7.78536 9.09342 7.41176 8.66662 7.01762C8.24429 7.40756 7.99875 7.77749 7.87169 8.10702L7.42935 9.25376L6.2505 8.90609C5.90273 8.80349 5.42787 8.73509 4.76071 8.69856C4.95891 9.98402 5.43534 10.5273 5.86966 10.8082C6.49067 11.2098 7.39549 11.332 8.64662 11.3332H8.68655C9.93769 11.332 10.8426 11.2098 11.4636 10.8082C11.8983 10.527 12.3752 9.98296 12.5731 8.69489C11.9265 8.72882 11.4727 8.79609 11.1372 8.90889L9.92055 9.31782ZM5.53733 12.6666H11.7959C11.605 13.8716 11.2733 15.7327 10.7494 17.9999H7.99989V19.3332H10.4298C9.96942 21.1881 9.38949 23.2549 8.66662 25.4199C8.43042 24.7126 8.20949 24.0157 8.00302 23.3332H8.66655V21.9999H7.61222C6.97395 19.7506 6.49634 17.6986 6.14724 15.9999H7.99989V14.6666H5.88483C5.73745 13.8825 5.62318 13.2082 5.53733 12.6666Z" fill="#383633"/>
<path d="M25.4949 18.6866C25.8521 18.7758 26.0692 19.1378 25.9799 19.495C25.5869 21.0672 24.4004 22.2537 22.8282 22.6468C22.471 22.736 22.1091 22.5188 22.0197 22.1616C21.9305 21.8044 22.1476 21.4425 22.5048 21.3532C23.5993 21.0796 24.4128 20.2661 24.6864 19.1716C24.7757 18.8144 25.1377 18.5972 25.4949 18.6866Z" fill="#383633"/>
<path fill-rule="evenodd" clip-rule="evenodd" d="M21.7671 14.0182C21.0278 12.2897 21.1559 10.4533 22.4712 9.13799L21.5284 8.19519C19.9755 9.74812 19.7059 11.7801 20.2267 13.6472C17.1762 12.2671 13.9999 14.8051 13.9999 18.6666C13.9999 22.3485 17.2831 25.3333 21.3332 25.3333C25.3833 25.3333 28.6665 22.3485 28.6665 18.6666C28.6665 14.5199 25.0035 11.8993 21.7671 14.0182ZM21.3332 16.0407L20.5003 15.3744C19.2616 14.3835 18.0413 14.4385 17.1171 15.0093C16.1401 15.6128 15.3332 16.9049 15.3332 18.6666C15.3332 21.4954 17.897 23.9999 21.3332 23.9999C24.7693 23.9999 27.3332 21.4954 27.3332 18.6666C27.3332 16.905 26.5263 15.6128 25.5492 15.0093C24.6251 14.4385 23.4047 14.3835 22.1661 15.3744L21.3332 16.0407Z" fill="#383633"/>
<path d="M22.6665 12C24.6665 12 25.9998 10.6666 25.9998 8.66663C23.9998 8.66663 22.6665 9.99996 22.6665 12Z" fill="#383633"/>
</svg>
