<svg width="24" height="24" viewBox="0 0 24 24" fill="none" xmlns="http://www.w3.org/2000/svg">
<g clip-path="url(#clip0_11636_4441)">
<path d="M17.2174 1.19072C15.6398 0.427875 13.8699 0 12 0C10.1302 0 8.36029 0.427875 6.78267 1.19072L5.73918 12L6.78267 22.8093C8.36029 23.5721 10.1302 24 12 24C13.8699 24 15.6398 23.5721 17.2174 22.8093L18.2609 12L17.2174 1.19072Z" fill="#FFDA44"/>
<path d="M11.9999 7.82607L13.0358 11.0145H16.3887L13.6763 12.9853L14.7123 16.1739L11.9999 14.2032L9.28746 16.1739L10.3236 12.9853L7.61126 11.0145H10.9639L11.9999 7.82607Z" fill="#496E2D"/>
<path d="M6.78267 1.19072C2.76876 3.13167 0 7.24251 0 12C0 16.7575 2.76876 20.8683 6.78267 22.8093V1.19072Z" fill="#496E2D"/>
<path d="M17.2174 1.19072V22.8093C21.2313 20.8683 24 16.7575 24 12C24 7.24251 21.2313 3.13167 17.2174 1.19072Z" fill="#D80027"/>
</g>
<rect x="0.5" y="0.5" width="23" height="23" rx="11.5" stroke="#383633"/>
<defs>
<clipPath id="clip0_11636_4441">
<rect width="24" height="24" rx="12" fill="white"/>
</clipPath>
</defs>
</svg>
