<svg width="24" height="24" viewBox="0 0 24 24" fill="none" xmlns="http://www.w3.org/2000/svg">
<path d="M6.825 20.0999H10.425C10.425 21.0899 9.615 21.8999 8.625 21.8999C7.635 21.8999 6.825 21.0899 6.825 20.0999ZM5.025 18.2999C5.025 18.7949 5.43 19.1999 5.925 19.1999H11.325C11.82 19.1999 12.225 18.7949 12.225 18.2999C12.225 17.8049 11.82 17.3999 11.325 17.3999H5.925C5.43 17.3999 5.025 17.8049 5.025 18.2999ZM15.375 10.6499C15.375 14.0879 12.981 15.9239 11.982 16.4999H5.268C4.269 15.9239 1.875 14.0879 1.875 10.6499C1.875 6.92385 4.899 3.89985 8.625 3.89985C12.351 3.89985 15.375 6.92385 15.375 10.6499ZM19.758 8.73285L18.525 9.29985L19.758 9.86685L20.325 11.0999L20.892 9.86685L22.125 9.29985L20.892 8.73285L20.325 7.49985L19.758 8.73285ZM17.625 7.49985L18.471 5.64585L20.325 4.79985L18.471 3.95385L17.625 2.09985L16.779 3.95385L14.925 4.79985L16.779 5.64585L17.625 7.49985Z" fill="#1F1E1C"/>
</svg>
