<?xml version="1.0" encoding="UTF-8"?><svg id="Layer_2" xmlns="http://www.w3.org/2000/svg" viewBox="0 0 1932.55 459.82"><defs><style>.cls-1{fill:none;stroke:#000;stroke-miterlimit:10;stroke-width:1.5px;}</style></defs><g id="Layer_1-2"><path class="cls-1" d="M.35,356.97s137.58,73.73,216.67,81.62c49.36,4.92,158.59.09,251.34-73.89,92.75-73.98,71.7-156.76,53.8-212.69-19.27-60.21-61.82-93.43-109.81-97.59-47.99-4.16-60.66,43.47-50.91,82.92,12.78,51.68,48.43,80.29,102.68,97.59,38.86,12.39,106.84,8.51,152.52-13.96,49.23-24.21,89.38-56.58,120.38-64.28s66.08-11.15,93.61.06,48.56,35.5,128.76,216.33c47.6,107.32,194.39,94.42,254.72,66.17,88.93-41.64,170.7-171.86,242.68-278.59,3.36-4.98,6.69-9.92,10-14.8l19.28-28.2c75-96.79,199.57-134.95,301.32-108.96,101.75,25.99,144.52,92.16,144.52,92.16"/></g></svg>