<svg width="165" height="36" viewBox="0 0 165 36" fill="none" xmlns="http://www.w3.org/2000/svg">
<g clip-path="url(#clip0_11603_25420)">
<path d="M18 36V32.7211C26.116 32.7211 32.7211 26.1186 32.7211 18C32.7211 9.88138 26.116 3.27893 18 3.27893C9.884 3.27893 3.27893 9.884 3.27893 18V23.5348H9.32789V18C9.32789 13.1393 13.2836 9.18362 18.1443 9.18362C23.005 9.18362 26.9607 13.1393 26.9607 18C26.9607 22.8607 23.005 26.8164 18.1443 26.8164H12.6094V35.8688H9.33051V26.8164H0V18C0 8.07403 8.07403 0 18 0C27.926 0 36 8.07403 36 18C36 27.926 27.926 36 18 36ZM12.6068 23.5348H18.1416C21.195 23.5348 23.6765 21.0507 23.6765 18C23.6765 14.9493 21.1924 12.4652 18.1416 12.4652C15.0909 12.4652 12.6068 14.9493 12.6068 18V23.5348Z" fill="black"/>
<path d="M43.3057 26.9348V6.88086H50.9836C52.2243 6.88086 53.3287 7.14317 54.2914 7.6678C55.2567 8.19243 56.0095 8.9479 56.5552 9.93157C57.0981 10.9153 57.371 12.0957 57.371 13.4702C57.371 14.7109 57.1139 15.8205 56.5971 16.7937C56.0804 17.7669 55.3459 18.5329 54.3911 19.0863C53.4362 19.6398 52.2794 19.9179 50.9259 19.9179H46.3984V26.9374H43.3057V26.9348ZM46.401 17.1924H50.6688C51.6997 17.1924 52.5444 16.8672 53.2054 16.2192C53.8638 15.5713 54.1943 14.6532 54.1943 13.4702C54.1943 12.2085 53.8612 11.2458 53.1923 10.5769C52.5234 9.90796 51.6919 9.57483 50.7003 9.57483H46.4036V17.1951L46.401 17.1924Z" fill="black"/>
<path d="M64.5348 27.2778C63.2547 27.2778 62.1477 26.9762 61.2112 26.3755C60.2748 25.7748 59.5534 24.9091 59.0472 23.7838C58.5409 22.6558 58.2891 21.3102 58.2891 19.7442C58.2891 18.1781 58.5514 16.7512 59.076 15.6337C59.6006 14.5162 60.3456 13.6611 61.3109 13.0709C62.2762 12.4781 63.3963 12.1816 64.6764 12.1816C65.5158 12.1816 66.2372 12.3338 66.8405 12.6407C67.4412 12.9476 67.9422 13.3332 68.3436 13.8001C68.7449 14.267 69.0413 14.7707 69.2328 15.3032V12.5253H72.1838V26.9342H69.2328V24.2979C69.023 24.9091 68.6846 25.439 68.215 25.8876C67.7455 26.3361 67.2025 26.6797 66.5808 26.9185C65.9591 27.1572 65.2771 27.2778 64.5321 27.2778H64.5348ZM65.2797 24.7832C66.1008 24.7832 66.8064 24.5602 67.3992 24.1091C67.9921 23.6605 68.4459 23.0598 68.7606 22.3043C69.0754 21.5489 69.2328 20.6964 69.2328 19.7415C69.2328 18.7867 69.0754 17.8975 68.7606 17.1341C68.4459 16.3708 67.9868 15.7701 67.3861 15.3294C66.7854 14.8913 66.0641 14.671 65.222 14.671C64.38 14.671 63.6403 14.8966 63.0579 15.3451C62.4756 15.7937 62.0349 16.3944 61.7411 17.1499C61.4447 17.9053 61.2978 18.7579 61.2978 19.7127C61.2978 20.6675 61.4447 21.5305 61.7411 22.3043C62.0375 23.0782 62.4808 23.6841 63.0737 24.1248C63.6665 24.5655 64.401 24.7832 65.2797 24.7832Z" fill="black"/>
<path d="M81.2021 27.2776C79.5207 27.2776 78.3219 26.9156 77.6058 26.189C76.8897 25.4624 76.5303 24.3948 76.5303 22.9809V15.1613H73.894V12.5251H74.5236C75.0771 12.5251 75.502 12.4674 75.7984 12.3519C76.0949 12.2365 76.2995 12.0319 76.4149 11.7355C76.5303 11.4391 76.588 11.0246 76.588 10.4895V8.9707H79.4813V12.5513H83.0619V15.1587H79.4813V22.6635C79.4813 23.3901 79.6571 23.8964 80.0112 24.1823C80.3653 24.4682 80.8454 24.6125 81.4592 24.6125C81.6507 24.6125 81.8684 24.602 82.1176 24.5836C82.3668 24.5653 82.6055 24.5364 82.8337 24.4971V27.0468C82.5845 27.1228 82.3091 27.1806 82.0022 27.2173C81.6953 27.2566 81.4303 27.275 81.1995 27.275L81.2021 27.2776Z" fill="black"/>
<path d="M85.4307 26.9348V6.88086H88.3817V15.0729C88.4578 14.787 88.6099 14.4775 88.8407 14.1417C89.069 13.8086 89.3706 13.4938 89.7431 13.1974C90.1156 12.901 90.5694 12.657 91.1045 12.4655C91.6396 12.274 92.2508 12.1796 92.9381 12.1796C93.9874 12.1796 94.8871 12.3999 95.6321 12.838C96.377 13.2787 96.9541 13.903 97.366 14.7136C97.7752 15.5267 97.9824 16.5052 97.9824 17.6489V26.9295H95.0314V18.0764C95.0314 16.8934 94.7691 16.033 94.2444 15.4979C93.7198 14.9628 92.9984 14.6952 92.0803 14.6952C91.2409 14.6952 90.5432 14.8946 89.9897 15.2959C89.4362 15.6972 89.0296 16.256 88.7726 16.9721C88.5155 17.6882 88.387 18.525 88.387 19.4798V26.9295H85.4359L85.4307 26.9348Z" fill="black"/>
<path d="M104.045 26.9343L99.1445 12.5254H102.353L105.991 24.8437H105.39L109.257 12.5254H112.237L116.103 24.8437H115.474L119.141 12.5254H122.121L117.278 26.9343H114.27L110.201 15.0174H111.174L107.048 26.9343H104.039H104.045Z" fill="black"/>
<path d="M128.912 27.2778C127.632 27.2778 126.525 26.9762 125.588 26.3755C124.652 25.7748 123.93 24.9091 123.424 23.7838C122.918 22.6558 122.666 21.3102 122.666 19.7442C122.666 18.1781 122.928 16.7512 123.453 15.6337C123.978 14.5162 124.723 13.6611 125.688 13.0709C126.653 12.4781 127.773 12.1816 129.053 12.1816C129.893 12.1816 130.614 12.3338 131.217 12.6407C131.818 12.9476 132.319 13.3332 132.721 13.8001C133.122 14.267 133.418 14.7707 133.61 15.3032V12.5253H136.561V26.9342H133.61V24.2979C133.4 24.9091 133.062 25.439 132.592 25.8876C132.122 26.3361 131.579 26.6797 130.958 26.9185C130.336 27.1572 129.654 27.2778 128.909 27.2778H128.912ZM129.657 24.7832C130.478 24.7832 131.183 24.5602 131.776 24.1091C132.369 23.6605 132.823 23.0598 133.138 22.3043C133.452 21.5489 133.61 20.6964 133.61 19.7415C133.61 18.7867 133.452 17.8975 133.138 17.1341C132.823 16.3708 132.364 15.7701 131.763 15.3294C131.162 14.8913 130.441 14.671 129.599 14.671C128.757 14.671 128.017 14.8966 127.435 15.3451C126.853 15.7937 126.412 16.3944 126.118 17.1499C125.822 17.9053 125.675 18.7579 125.675 19.7127C125.675 20.6675 125.822 21.5305 126.118 22.3043C126.414 23.0782 126.858 23.6841 127.451 24.1248C128.043 24.5655 128.778 24.7832 129.657 24.7832Z" fill="black"/>
<path d="M141.262 33.5224C140.879 33.5224 140.498 33.4935 140.115 33.4358C139.732 33.3781 139.447 33.3204 139.255 33.2627V30.713C139.428 30.7523 139.638 30.7786 139.885 30.7995C140.134 30.8179 140.362 30.8284 140.572 30.8284C141.049 30.8284 141.487 30.7182 141.889 30.4979C142.29 30.2775 142.663 29.8814 143.006 29.3096C143.35 28.7377 143.654 27.9141 143.922 26.8465L137.878 12.5215H141.057L145.469 23.4941L149.136 12.5215H152.287L146.529 27.9062C146.07 29.1863 145.603 30.2408 145.126 31.0723C144.648 31.9039 144.108 32.5203 143.507 32.919C142.906 33.3204 142.156 33.5197 141.259 33.5197L141.262 33.5224Z" fill="black"/>
<path d="M158.656 27.2792C157.47 27.2792 156.402 27.0588 155.448 26.6208C154.493 26.1827 153.743 25.5794 153.2 24.816C152.657 24.0527 152.384 23.2028 152.384 22.2663L155.393 22.2952C155.393 22.8303 155.555 23.2841 155.88 23.6566C156.206 24.0291 156.62 24.3019 157.126 24.4724C157.633 24.6455 158.181 24.7295 158.774 24.7295C159.747 24.7295 160.516 24.5773 161.08 24.2704C161.643 23.9661 161.924 23.4887 161.924 22.8382C161.924 22.3424 161.704 21.9752 161.266 21.7338C160.825 21.4951 160.258 21.3089 159.561 21.1751C158.863 21.0413 158.128 20.9076 157.355 20.7738C156.581 20.64 155.846 20.4354 155.149 20.1573C154.451 19.8819 153.884 19.4648 153.444 18.9113C153.003 18.3579 152.785 17.6129 152.785 16.6764C152.785 15.9131 152.984 15.1917 153.386 14.5123C153.787 13.8356 154.406 13.2768 155.248 12.8361C156.088 12.3981 157.168 12.1777 158.485 12.1777C159.613 12.1777 160.563 12.3168 161.337 12.5922C162.11 12.8702 162.729 13.227 163.199 13.6677C163.666 14.1084 164.007 14.5832 164.217 15.0999C164.427 15.6167 164.532 16.102 164.532 16.561H161.581C161.581 16.102 161.318 15.6823 160.794 15.2993C160.269 14.9163 159.49 14.7274 158.459 14.7274C157.486 14.7274 156.783 14.8901 156.353 15.2153C155.922 15.5406 155.707 15.9708 155.707 16.5033C155.707 16.923 155.875 17.2483 156.208 17.4765C156.541 17.7047 156.977 17.8883 157.512 18.0195C158.047 18.1533 158.643 18.2765 159.304 18.392C159.962 18.5074 160.618 18.649 161.266 18.8222C161.914 18.9953 162.506 19.234 163.042 19.5383C163.577 19.8452 164.01 20.2491 164.345 20.7554C164.678 21.2617 164.846 21.907 164.846 22.6887C164.846 23.5491 164.631 24.3203 164.201 25.0101C163.771 25.6974 163.099 26.2456 162.181 26.6575C161.266 27.0667 160.091 27.2739 158.658 27.2739L158.656 27.2792Z" fill="black"/>
</g>
<defs>
<clipPath id="clip0_11603_25420">
<rect width="164.843" height="36" fill="white"/>
</clipPath>
</defs>
</svg>
